<?xml version="1.0" standalone="no"?><!DOCTYPE svg PUBLIC "-//W3C//DTD SVG 1.1//EN" "http://www.w3.org/Graphics/SVG/1.1/DTD/svg11.dtd"><svg t="1638364736667" class="icon" viewBox="0 0 1024 1024" version="1.1" xmlns="http://www.w3.org/2000/svg" p-id="1702" xmlns:xlink="http://www.w3.org/1999/xlink" width="128" height="128"><defs><style type="text/css"></style></defs><path d="M626.736 416H320a32 32 0 1 0 0 64h384a32 32 0 0 0 22.132-55.112l-135.44-135.444a32 32 0 1 0-45.26 45.256l81.304 81.3zM397.188 608H704a32 32 0 1 0 0-64H320a32 32 0 0 0-31.928 34.148 31.88 31.88 0 0 0 9.304 20.548L433.14 734.46a32 32 0 1 0 45.256-45.252L397.188 608zM127 192h768c35.348 0 64 28.652 64 64v512c0 35.348-28.652 64-64 64H127c-35.348 0-64-28.652-64-64V256c0-35.348 28.652-64 64-64z" fill="#8a8a8a" p-id="1703"></path></svg>