<?xml version="1.0" standalone="no"?><!DOCTYPE svg PUBLIC "-//W3C//DTD SVG 1.1//EN" "http://www.w3.org/Graphics/SVG/1.1/DTD/svg11.dtd"><svg t="1644390825374" class="icon" viewBox="0 0 1024 1024" version="1.1" xmlns="http://www.w3.org/2000/svg" p-id="2126" xmlns:xlink="http://www.w3.org/1999/xlink" width="64" height="64"><defs><style type="text/css"></style></defs><path d="M512 961.9994999a448.59950156 448.59950156 0 0 0 318.19964678-131.79985312A448.59950156 448.59950156 0 0 0 961.9994999 512a448.59950156 448.59950156 0 0 0-131.79985312-318.19964678A448.59950156 448.59950156 0 0 0 512 62.0005001a448.59950156 448.59950156 0 0 0-318.19964678 131.79985312A448.59950156 448.59950156 0 0 0 62.0005001 512a448.59950156 448.59950156 0 0 0 131.79985312 318.19964678A448.59950156 448.59950156 0 0 0 512 961.9994999z" fill="#00CC52" p-id="2127"></path><path d="M462.00005527 591.29991231L347.35018291 476.65003906a49.99994473 49.99994473 0 0 0-70.699921 70.69992188l149.9998333 149.9998333a49.99994473 49.99994473 0 0 0 70.69992101 0l274.99969423-274.99969424a49.99994473 49.99994473 0 1 0-70.699921-70.69992188L462.00005527 591.29991231z" fill="#FFFFFF" p-id="2128"></path></svg>