<?xml version="1.0" standalone="no"?><!DOCTYPE svg PUBLIC "-//W3C//DTD SVG 1.1//EN" "http://www.w3.org/Graphics/SVG/1.1/DTD/svg11.dtd"><svg t="1644390446482" class="icon" viewBox="0 0 1024 1024" version="1.1" xmlns="http://www.w3.org/2000/svg" p-id="2126" width="64" height="64" xmlns:xlink="http://www.w3.org/1999/xlink"><defs><style type="text/css"></style></defs><path d="M640.43 512a128.565 128.565 0 1 1-257.085 0 128.565 128.565 0 0 1 257.085 0zM511.91 962a448.875 448.875 0 0 1-433.8-337.5l126.09-25.2a320.76 320.76 0 0 0 627.795-118.08 320.76 320.76 0 0 0-320.085-290.655 316.26 316.26 0 0 0-214.92 84.87l86.4 108H62L126.26 62l90 112.5a449.325 449.325 0 0 1 537.975-40.995A449.55 449.55 0 0 1 511.91 962z" fill="gray" p-id="2127"></path></svg>