<?xml version="1.0" standalone="no"?><!DOCTYPE svg PUBLIC "-//W3C//DTD SVG 1.1//EN" "http://www.w3.org/Graphics/SVG/1.1/DTD/svg11.dtd"><svg t="1643350207712" class="icon" viewBox="0 0 1024 1024" version="1.1" xmlns="http://www.w3.org/2000/svg" p-id="3615" xmlns:xlink="http://www.w3.org/1999/xlink" width="64" height="64"><defs><style type="text/css"></style></defs><path d="M512 0C230.4 0 0 230.4 0 512s230.4 512 512 512 512-230.4 512-512-230.4-512-512-512z m179.2 819.2H332.8c-34.133333 0-51.2-25.6-51.2-51.2s25.6-51.2 51.2-51.2h358.4c25.6 0 51.2 25.6 51.2 51.2s-25.6 51.2-51.2 51.2z m59.733333-366.933333L546.133333 657.066667c-8.533333 8.533333-17.066667 17.066667-34.133333 17.066666s-25.6-8.533333-34.133333-17.066666L273.066667 452.266667c-17.066667-17.066667-17.066667-51.2 0-68.266667s51.2-17.066667 68.266666 0l110.933334 110.933333V256c0-25.6 25.6-51.2 51.2-51.2s59.733333 25.6 59.733333 51.2v238.933333L682.666667 384c17.066667-17.066667 51.2-17.066667 68.266666 0s25.6 51.2 0 68.266667z" p-id="3616" fill="#8a8a8a"></path></svg>