<?xml version="1.0" standalone="no"?><!DOCTYPE svg PUBLIC "-//W3C//DTD SVG 1.1//EN" "http://www.w3.org/Graphics/SVG/1.1/DTD/svg11.dtd"><svg t="1640766131746" class="icon" viewBox="0 0 1024 1024" version="1.1" xmlns="http://www.w3.org/2000/svg" p-id="1486" xmlns:xlink="http://www.w3.org/1999/xlink" width="128" height="128"><defs><style type="text/css"></style></defs><path d="M136.99999971 136.99999971m75.00000058 0l187.49999971 0q74.99999971 0 74.99999971 75.00000058l0 187.49999971q0 74.99999971-74.99999971 74.99999971l-187.49999971 0q-74.99999971 0-75.00000058-74.99999971l0-187.49999971q0-74.99999971 75.00000058-75.00000058Z" fill="#0454F2" p-id="1487"></path><path d="M136.99999971 549.50000029m75.00000058 0l187.49999971 0q74.99999971 0 74.99999971 74.99999971l0 187.49999971q0 74.99999971-74.99999971 75.00000058l-187.49999971 0q-74.99999971 0-75.00000058-75.00000058l0-187.49999971q0-74.99999971 75.00000058-74.99999971Z" fill="#0454F2" p-id="1488"></path><path d="M549.50000029 549.50000029m74.99999971 0l187.49999971 0q74.99999971 0 75.00000058 74.99999971l0 187.49999971q0 74.99999971-75.00000058 75.00000058l-187.49999971 0q-74.99999971 0-74.99999971-75.00000058l0-187.49999971q0-74.99999971 74.99999971-74.99999971Z" fill="#0454F2" p-id="1489"></path><path d="M549.50000029 136.99999971m168.75 0l0 0q168.75 0 168.75 168.75l0 0q0 168.75-168.75 168.75l0 0q-168.75 0-168.75-168.75l0 0q0-168.75 168.75-168.75Z" fill="#FF9400" p-id="1490"></path></svg>