<?xml version="1.0" standalone="no"?><!DOCTYPE svg PUBLIC "-//W3C//DTD SVG 1.1//EN" "http://www.w3.org/Graphics/SVG/1.1/DTD/svg11.dtd"><svg t="1640755696566" class="icon" viewBox="0 0 1024 1024" version="1.1" xmlns="http://www.w3.org/2000/svg" p-id="1486" width="128" height="128" xmlns:xlink="http://www.w3.org/1999/xlink"><defs><style type="text/css"></style></defs><path d="M480.15138888 229.34374999c-8.4375-12.65625001-25.3125-25.3125-46.40625-25.3125H184.83888888C159.52638888 204.03124999 134.21388888 229.34374999 134.21388888 258.875v535.78125001c0 29.53125001 25.3125 50.625 50.625 50.62499998h637.03125001c29.53125001 0 50.625-25.3125 50.625-50.625V377c0-29.53125001-25.3125-50.625-50.625-50.625h-248.90625001c-16.875 0-33.75-8.4375-42.1875-25.3125" fill="#92C8FB" p-id="1487"></path><path d="M821.87013889 849.50000001H176.40138888c-25.3125 0-42.1875-21.09375001-33.75-46.40625002L231.24513888 469.8125c8.4375-25.3125 33.75-42.1875 63.28125-42.1875h645.46875001c25.3125 0 42.1875 21.09375001 33.75 46.40624999l-92.8125 329.0625c-4.21875001 25.3125-33.75 46.40625001-59.0625 46.40625z m-1e-8-2e-8" fill="#2491F7" p-id="1488"></path></svg>