<?xml version="1.0" standalone="no"?><!DOCTYPE svg PUBLIC "-//W3C//DTD SVG 1.1//EN" "http://www.w3.org/Graphics/SVG/1.1/DTD/svg11.dtd"><svg t="1644390758800" class="icon" viewBox="0 0 1024 1024" version="1.1" xmlns="http://www.w3.org/2000/svg" p-id="2126" xmlns:xlink="http://www.w3.org/1999/xlink" width="64" height="64"><defs><style type="text/css"></style></defs><path d="M749.55504482 853.01c9.54 16.1775 4.1175 37.6695-12.456 46.8135-16.5735 9.54-37.368 3.915-46.809-12.456-10.044-16.173-4.1175-37.2645 12.0555-46.809 16.974-9.6435 37.665-3.717 47.205 12.456z m-202.7025 73.0305c0 18.6795-15.57 34.3485-34.8525 34.3485-18.783 0-34.452-15.165-34.452-34.3485v-24.111c0-19.1835 15.768-34.353 34.452-34.353 19.1835 0 34.8525 15.1695 34.8525 34.353v24.111z m-212.544-38.673c-9.945 16.974-30.9375 22.3965-47.205 12.7575a33.957 33.957 0 0 1-12.861-47.0115l25.713-44.6985c9.846-16.47 30.9375-22.095 47.61-12.7575 16.38 9.54 22.203 30.8385 12.357 47.0115l-25.614 44.6985z m-164.7315-138.915c-16.7715 9.3375-38.169 3.7125-47.3085-12.762-9.846-16.1685-4.32-37.4625 12.2535-47.007l68.9085-39.78c16.47-9.036 37.8675-3.915 47.205 12.762 9.342 16.1685 3.8205 37.467-12.8565 47.205l-68.202 39.5775zM96.35304482 545.642A34.1865 34.1865 0 0 1 62.00004482 511.397c0-19.188 15.165-34.5555 34.353-34.5555h107.28a34.3575 34.3575 0 0 1 34.4475 34.353c0 19.188-15.264 34.5555-34.452 34.5555 0-0.1035-107.28-0.1035-107.28-0.1035z m38.3715-212.139c-16.776-9.342-22.0995-30.438-12.258-46.809 9.144-16.6725 30.537-22.2975 47.313-12.7575l116.5185 67.401c16.5735 9.342 21.996 30.4335 12.8565 46.6065-9.945 16.776-31.041 22.1985-47.313 12.7575-0.099 0-117.117-67.1985-117.117-67.1985z m139.617-164.331l81.063 140.526c9.945 16.47 30.9375 22.2975 47.511 12.4515 16.5735-9.342 21.798-30.636 12.2535-47.007l-81.36-140.22c-9.342-16.173-30.537-22.0995-46.71-12.4605-16.7715 9.4455-22.095 30.636-12.7575 46.71zM477.35004482 96.5555c0-18.585 15.768-34.5555 34.452-34.5555 19.188 0 34.857 15.4665 34.857 34.5555V258.47c0 19.1835-15.57 34.551-34.857 34.7535-18.783 0-34.452-15.165-34.452-34.7535V96.5555z m212.445 38.268c9.945-16.6725 30.735-22.095 47.3085-12.7575 16.776 9.342 22.599 30.438 12.7575 47.0115l-81.36 140.5215c-9.045 16.47-30.735 22.302-47.0115 12.7575-16.5735-9.54-21.996-30.8385-12.654-47.412l80.955-140.121z m165.231 139.1175l-141.0255 81.162c-16.5735 9.342-22.1985 30.4335-12.8565 47.007 9.945 16.173 31.0365 21.6 47.3085 12.456l141.129-81.162c16.173-9.342 22.095-30.4335 12.2535-46.8045-9.243-16.5735-30.537-22.5-46.809-12.6585z m72.522 202.8015c19.386 0 34.6545 15.4665 34.4565 34.5555a34.2315 34.2315 0 0 1-34.4565 34.3485H765.12504482c-18.684 0-34.4565-15.4665-34.4565-34.551 0-18.8865 15.7725-34.353 34.4565-34.353h162.4185z" fill="#0084F0" p-id="2127"></path></svg>