<?xml version="1.0" standalone="no"?><!DOCTYPE svg PUBLIC "-//W3C//DTD SVG 1.1//EN" "http://www.w3.org/Graphics/SVG/1.1/DTD/svg11.dtd"><svg t="1643350437350" class="icon" viewBox="0 0 1024 1024" version="1.1" xmlns="http://www.w3.org/2000/svg" p-id="2096" xmlns:xlink="http://www.w3.org/1999/xlink" width="64" height="64"><defs><style type="text/css"></style></defs><path d="M512 26.54814777c268.11505778 0 485.45185223 217.33679445 485.45185223 485.45185223s-217.33679445 485.45185223-485.45185223 485.45185223S26.54814777 780.11505778 26.54814777 512 243.88494222 26.54814777 512 26.54814777z m1.45635555 398.21615445l-6.40796444 0.29127111a50.97244445 50.97244445 0 0 0-41.74885888 14.66064555l-126.46020778 126.46020779-4.27197668 4.8545189a51.11808 51.11808 0 0 0 76.50721223 67.47780664l49.85590557-49.80736v178.7919178l0.2912711 5.58269554a51.11808 51.11808 0 0 0 101.55652666 0l0.33981667-5.58269554v-168.93724444l39.85559666 39.90414222 4.85451889 4.27197554a51.11808 51.11808 0 0 0 71.65269334-71.70123776l-4.22343111-4.8545189-126.46020779-126.46020779-5.14578887-4.46615666a51.02099001 51.02099001 0 0 0-36.60307001-10.19448889z m177.38410667-193.79237888H333.15953778l-5.58269668 0.29127111a51.11808 51.11808 0 0 0 5.58269668 101.89634333h357.68092444l5.58269668-0.29127111a51.11808 51.11808 0 0 0-5.58269668-101.94488889z" fill="#1afa29" p-id="2097"></path></svg>