<?xml version="1.0" standalone="no"?><!DOCTYPE svg PUBLIC "-//W3C//DTD SVG 1.1//EN" "http://www.w3.org/Graphics/SVG/1.1/DTD/svg11.dtd"><svg t="1644549870272" class="icon" viewBox="0 0 1024 1024" version="1.1" xmlns="http://www.w3.org/2000/svg" p-id="2250" xmlns:xlink="http://www.w3.org/1999/xlink" width="64" height="64"><defs><style type="text/css"></style></defs><path d="M512 512m-450 0a450 450 0 1 0 900 0 450 450 0 1 0-900 0Z" fill="#E87B7B" p-id="2251"></path><path d="M467 242m45 0l0 0q45 0 45 45l0 315q0 45-45 45l0 0q-45 0-45-45l0-315q0-45 45-45Z" fill="#FFFFFF" p-id="2252"></path><path d="M467 692m45 0l0 0q45 0 45 45l0 0q0 45-45 45l0 0q-45 0-45-45l0 0q0-45 45-45Z" fill="#FFFFFF" p-id="2253"></path></svg>