<?xml version="1.0" standalone="no"?><!DOCTYPE svg PUBLIC "-//W3C//DTD SVG 1.1//EN" "http://www.w3.org/Graphics/SVG/1.1/DTD/svg11.dtd"><svg t="1644390868322" class="icon" viewBox="0 0 1024 1024" version="1.1" xmlns="http://www.w3.org/2000/svg" p-id="2126" xmlns:xlink="http://www.w3.org/1999/xlink" width="64" height="64"><defs><style type="text/css"></style></defs><path d="M512 62a450 450 0 1 1 0 900A450 450 0 0 1 512 62z m0 76.33125a373.66875 373.66875 0 0 0 0 747.3375A373.66875 373.66875 0 0 0 512 138.33125z m166.10625 206.71875a8.04375 8.04375 0 0 1 8.1 8.04375 8.49375 8.49375 0 0 1-1.85625 5.2875L553.68125 514.08125l130.5 155.64375a7.9875 7.9875 0 0 1-6.1875 13.1625l-66.20625-0.225L512 563.69375l-99.7875 118.96875-66.375 0.225a8.04375 8.04375 0 0 1-6.13125-13.21875l130.725-155.5875L339.7625 358.4375a8.1 8.1 0 0 1 6.13125-13.275l66.375 0.28125L512 464.4125l99.9-119.08125z" fill="#FF595E" p-id="2127"></path></svg>