<?xml version="1.0" standalone="no"?><!DOCTYPE svg PUBLIC "-//W3C//DTD SVG 1.1//EN" "http://www.w3.org/Graphics/SVG/1.1/DTD/svg11.dtd"><svg t="1647396435795" class="icon" viewBox="0 0 1024 1024" version="1.1" xmlns="http://www.w3.org/2000/svg" p-id="2483" xmlns:xlink="http://www.w3.org/1999/xlink" width="64" height="64"><defs><style type="text/css"></style></defs><path d="M859.4140625 788.85546875c15.68188477 0 28.31835938 12.61669922 28.31835938 28.04150391v3.12451172A28.27880859 28.27880859 0 0 1 859.4140625 848.18164063H164.5859375A28.19970703 28.19970703 0 0 1 136.26757812 820.14013672v-3.24316406C136.26757812 801.37329102 149.00292969 788.85546875 164.5859375 788.85546875h694.828125z m-16.07739258-632.8125C878.73461914 156.04296875 907.5078125 185.07324219 907.5078125 220.74804687v424.4194336C907.38916016 680.72363281 878.6159668 709.75390625 843.23779297 709.75390625H180.66333008C145.26538086 709.75390625 116.4921875 680.72363281 116.4921875 645.04882813V220.74804687C116.4921875 185.07324219 145.28515625 156.04296875 180.66333008 156.04296875h662.67333984z m-4.2121582 59.32617188H185.40942383A9.68994141 9.68994141 0 0 0 175.81835937 225.13818359v416.54882813c0 5.33935547 4.23193359 9.76904297 9.59106446 9.76904297h653.71508789a9.68994141 9.68994141 0 0 0 9.61083984-9.76904297V225.13818359A9.68994141 9.68994141 0 0 0 839.12451172 215.36914062z m-119.77954102 87.84228515c9.21533203 10.59960938 8.10791016 26.69677734-2.43237304 35.97143555l-165.46069336 145.50732422-0.96899414 0.98876953a25.21362305 25.21362305 0 0 1-4.82519532 3.3815918H545.61816406l-2.0961914 1.0480957a24.95654297 24.95654297 0 0 1-1.91821289 0.75146484 24.10620117 24.10620117 0 0 1-7.35644532 1.34472656h-1.58203125a25.70800781 25.70800781 0 0 1-16.13671875-5.93261718l-87.13037109-72.37792969-112.0078125 129.25195312a24.28417969 24.28417969 0 1 1-36.82177734-31.68017578l123.49731445-142.52124023a24.12597656 24.12597656 0 0 1 3.67822265-5.33935547l1.16674805-1.32495117c4.88452148-5.45800781 11.76635742-8.32543945 18.72729492-8.48364258h0.19775391c2.03686523-0.03955078 4.07373047 0.15820313 6.09082031 0.6328125 3.89575195 0.8503418 7.63330078 2.63012695 10.85668946 5.31958008l88.33666992 73.36669922 150.49072265-132.35668946a25.21362305 25.21362305 0 0 1 35.73413086 2.45214844z" fill="#31A1EC" p-id="2484"></path></svg>