<?xml version="1.0" standalone="no"?><!DOCTYPE svg PUBLIC "-//W3C//DTD SVG 1.1//EN" "http://www.w3.org/Graphics/SVG/1.1/DTD/svg11.dtd"><svg t="1638363861771" class="icon" viewBox="0 0 1024 1024" version="1.1" xmlns="http://www.w3.org/2000/svg" p-id="3183" width="128" height="128" xmlns:xlink="http://www.w3.org/1999/xlink"><defs><style type="text/css"></style></defs><path d="M816 161H208c-44.183 0-80 35.817-80 80v542c0 44.183 35.817 80 80 80h608c44.183 0 80-35.817 80-80V241c0-44.183-35.817-80-80-80zM325.379 516.243l55.154 55.154c12.497 12.497 12.497 32.758 0 45.255s-32.758 12.497-45.255 0l-59.397-59.396-22.627-22.628c-12.497-12.497-12.497-32.758 0-45.255l22.627-22.627 59.397-59.397c12.497-12.496 32.758-12.496 45.255 0 12.497 12.497 12.497 32.759 0 45.255l-55.154 55.154a6 6 0 0 0 0 8.485z m263.065-84.345L492.65 621.021c-7.986 15.767-27.24 22.073-43.006 14.088s-22.073-27.24-14.087-43.007l95.793-189.123c7.985-15.766 27.24-22.073 43.006-14.087 15.766 7.985 22.073 27.24 14.088 43.006z m182.302 102.729l-22.627 22.628-59.397 59.396c-12.497 12.497-32.758 12.497-45.255 0s-12.497-32.758 0-45.255l55.154-55.154a6 6 0 0 0 0-8.485l-55.154-55.154c-12.497-12.496-12.497-32.758 0-45.255 12.497-12.496 32.758-12.496 45.255 0l59.397 59.397 22.627 22.627c12.497 12.498 12.497 32.758 0 45.255z" p-id="3184"></path></svg>