<?xml version="1.0" standalone="no"?><!DOCTYPE svg PUBLIC "-//W3C//DTD SVG 1.1//EN" "http://www.w3.org/Graphics/SVG/1.1/DTD/svg11.dtd"><svg t="1642137519874" class="icon" viewBox="0 0 1024 1024" version="1.1" xmlns="http://www.w3.org/2000/svg" p-id="1510" xmlns:xlink="http://www.w3.org/1999/xlink" width="64" height="64"><defs><style type="text/css"></style></defs><path d="M824.72135444 266.32812473L543.37760454 101.65625027a84.07031231 84.07031231 0 0 0-84.91406314 0L177.2838539 266.32812473a84.93750027 84.93750027 0 0 0-41.88281232 73.31250064v349.49999954a84.91406231 84.91406231 0 0 0 42.84375046 73.828125l281.24999972 159.91406296a83.953125 83.953125 0 0 0 83.03906278 0l281.24999972-159.890625a84.89062519 84.89062519 0 0 0 42.8671876-73.828125V339.64062537" fill="#5077FD" p-id="1511"></path><path d="M780.66666636 379.81333344a31.99999969 31.99999969 0 0 0-31.62666656-55.65333375l-249.78666657 142.16000062-249.76000031-142.13333343a31.99999969 31.99999969 0 0 0-31.68 55.62666656l253.33333406 144.16000031V831.99999969a31.99999969 31.99999969 0 1 0 63.99999938 0V522.66666687c0-0.96-0.48-1.84000031-0.55999969-2.82666656l246.07999969-140.02666687z" fill="#FFD92F" p-id="1512"></path><path d="M499.25333323 466.32000031l-249.76000031-142.13333343a31.99999969 31.99999969 0 0 0-31.68 55.62666656l253.33333406 144.16000031 28.10666625-57.65333344z" fill="#20C997" p-id="1513"></path></svg>